<?xml version="1.0" standalone="no"?>
<!DOCTYPE svg PUBLIC "-//W3C//DTD SVG 20010904//EN"
 "http://www.w3.org/TR/2001/REC-SVG-20010904/DTD/svg10.dtd">
<svg version="1.0" xmlns="http://www.w3.org/2000/svg"
 width="512.000000pt" height="512.000000pt" viewBox="0 0 512.000000 512.000000"
 preserveAspectRatio="xMidYMid meet">
<metadata>
Created by potrace 1.14, written by Peter Selinger 2001-2017
</metadata>
<g transform="translate(0.000000,512.000000) scale(0.100000,-0.100000)"
fill="#000000" stroke="none">
<path d="M3988 5101 c-113 -36 -158 -83 -138 -144 10 -30 1090 -1105 1115
-1110 43 -8 80 17 108 74 37 76 45 115 43 206 -2 66 -8 91 -35 149 -29 64 -60
96 -384 421 -322 322 -358 355 -420 384 -87 40 -200 48 -289 20z"/>
<path d="M3092 5094 c-108 -28 -144 -56 -379 -290 -206 -206 -228 -231 -259
-299 -56 -121 -52 -247 12 -365 43 -82 1598 -1636 1675 -1676 137 -70 274 -65
409 13 67 39 474 451 503 510 71 140 67 291 -12 415 -38 59 -1568 1591 -1634
1635 -88 59 -216 82 -315 57z"/>
<path d="M2645 3421 c-52 -31 -936 -922 -951 -957 -17 -40 -17 -89 -1 -127 17
-39 605 -626 644 -643 41 -18 85 -18 126 0 45 18 945 919 964 964 16 39 15 95
-3 132 -18 36 -608 623 -641 637 -41 18 -104 15 -138 -6z"/>
<path d="M695 2695 c-106 -25 -147 -56 -382 -291 -191 -191 -229 -234 -254
-287 -65 -141 -57 -284 25 -405 44 -65 1576 -1596 1634 -1633 123 -78 283 -83
416 -11 73 39 486 453 521 522 70 137 65 291 -13 415 -33 52 -1585 1604 -1637
1637 -88 55 -212 76 -310 53z"/>
<path d="M99 1265 c-45 -24 -94 -145 -98 -239 -3 -56 18 -143 46 -201 34 -67
706 -742 773 -776 129 -64 278 -62 396 7 46 26 69 70 55 106 -9 24 -1089 1108
-1105 1109 -6 0 -18 2 -27 4 -8 1 -26 -3 -40 -10z"/>
</g>
</svg>
